<svg id="_лой_1" data-name="‘лой_1" xmlns="http://www.w3.org/2000/svg" viewBox="0 0 1000 1000"><defs><style>.cls-1{fill:#ed7d2b;}.cls-2{fill:#f99746;}.cls-3{fill:#16697a;}.cls-4{fill:#ffeddc;}.cls-5{fill:#e5c1a1;}.cls-6{fill:#f9ddbf;}</style></defs><path class="cls-1" d="M214.8,475.21V564.9c0,17.17-14.69,31.22-32.64,31.22H115c-18,0-32.64-14-32.64-31.22V475.21C82.33,458,97,444,115,444h67.19C200.11,444,214.8,458,214.8,475.21Z"/><path class="cls-2" d="M214.8,475.21v50c0,17.16-14.69,31.22-32.64,31.22H115c-18,0-32.64-14.06-32.64-31.22v-50C82.33,458,97,444,115,444h67.19C200.11,444,214.8,458,214.8,475.21Z"/><path class="cls-1" d="M959.28,520.05a318.12,318.12,0,0,1-27.53,129.59c-53.17,119.7-177.48,204.19-321.42,204.19H510.57c-6,0-11.92-.14-17.84-.43a356.53,356.53,0,0,1-195-69.35,342.82,342.82,0,0,1-87.39-94.51,319.21,319.21,0,0,1-21.13-299.09c53.15-119.68,177.46-204.17,321.41-204.17h99.76c130.9,0,245.56,69.88,305.25,172.54A319.79,319.79,0,0,1,959.28,520.05Z"/><path class="cls-1" d="M669.38,712.12,636.83,914.28c-4.32,15.66,8,31,25,31h85.54c18.33,0,35.13-9.79,43.53-25.38L923.81,666.24Z"/><path class="cls-1" d="M475.76,945.27H390.22c-18.33,0-35.13-9.79-43.53-25.39L264.47,781l-54.18-91.49L474.62,715.6l9.56,72.67,8.55,65.13,8,60.88C505.05,929.94,492.7,945.27,475.76,945.27Z"/><path class="cls-2" d="M906.75,481.47c-70.43,193.74-137.08,297.33-407,306.34q-7.86.26-15.52.46c-77.07,2-139.69-.56-186.5-4.22-12.14-.95-23.21-2-33.21-3l-54.18-91.49a319.21,319.21,0,0,1-21.13-299.09c53.15-119.68,177.46-204.17,321.41-204.17h99.76c130.9,0,245.56,69.88,305.25,172.54C923.85,397.32,917.34,452.34,906.75,481.47Z"/><path class="cls-2" d="M469.43,269.9H332.18c-13.84,0-25.06-8-25.06-17.95V72.71a14,14,0,0,1,2.75-8.26c6.71-9.32,24.34-13.16,37.47-6.05,52.12,28.26,137.49,89.66,147.09,192.33C495.41,261.1,483.93,269.9,469.43,269.9Z"/><path class="cls-1" d="M337.76,269.9h-5.58c-13.84,0-25.06-8-25.06-17.95V72.71a14,14,0,0,1,2.75-8.26A17.88,17.88,0,0,1,311.56,66c29.81,31.75,72.78,94.12,60.68,181.48C370.48,260.21,355.58,269.9,337.76,269.9Z"/><path class="cls-3" d="M265.43,389.73c0-10.81,9.15-19.56,20.44-19.56s20.45,8.75,20.45,19.56-9.15,19.56-20.45,19.56S265.43,400.53,265.43,389.73Z"/><path class="cls-4" d="M350.75,700.23S327,733.71,305.17,734.18s-55-15.52-55-15.52-20-44.62-6.44-62.07c0,0,13.61-6,27.85,4.57a42.67,42.67,0,0,1,7.37,7.07A23.41,23.41,0,0,0,290.43,676c15.55,4.74,34-6.4,40.93,4.35a73.07,73.07,0,0,0,12,14.24A55.06,55.06,0,0,0,350.75,700.23Z"/><path class="cls-4" d="M40.72,941.73s84.05-203.67,235.35-207.55c0,0,139.67,15.51,147.43,207.55Z"/><path class="cls-3" d="M234.62,740.4S295.27,753.88,314,746c0,0,2.83-25.36-22.71-21.81-17.48,2.44-28.87-6-35.56-9.37C246.23,710,232.11,729.79,234.62,740.4Z"/><path class="cls-5" d="M287.4,702.17c-3.88,2.91-15.79-41-15.79-41a42.67,42.67,0,0,1,7.37,7.07A23.41,23.41,0,0,0,290.43,676C290.47,677.26,291.17,699.34,287.4,702.17Z"/><path class="cls-5" d="M343.38,694.57c-.85.5-28.9,17.3-32.7,17.3s20.68-31.54,20.68-31.54A73.07,73.07,0,0,0,343.38,694.57Z"/><path class="cls-6" d="M122.83,884.83c-1.55-1.33,59.49-89.87,76.3-90.52s54.58,19.4,81.93,22,53.85-5.17,59,11,19.39,73.47,10.66,82.64S156.4,913.51,122.83,884.83Z"/></svg>